<?xml version="1.0" encoding="UTF-8"?>
<svg id="Camada_1" xmlns="http://www.w3.org/2000/svg" version="1.1" viewBox="0 0 136 136">
  <!-- Generator: Adobe Illustrator 30.2.1, SVG Export Plug-In . SVG Version: 2.1.1 Build 1)  -->
  <defs>
    <style>
      .st0 {
        fill: #b68731;
      }

      .st1 {
        fill: #fff;
      }
    </style>
  </defs>
  <rect class="st0" x="-.56" y="-.35" width="136.52" height="136.53"/>
  <polygon class="st1" points="13.07 17.59 13.11 17.59 13.11 38.66 17.74 38.66 17.74 11.13 14.04 11.13 9.78 16.13 9.78 20.96 9.82 20.96 13.07 17.59"/>
  <path class="st1" d="M20.5,16.82v3.33h4.22v-3.45c0-1.66.81-2.15,1.79-2.15.89,0,1.66.37,1.66,2.07v2.27c0,2.27-.2,3.17-1.71,4.75l-2.6,2.76c-2.52,2.68-3.45,4.47-3.45,7.19v5.07h12.02v-3.78h-7.59v-1.3c0-2.15.77-2.96,1.95-4.22l2.96-3.13c2.4-2.56,2.92-4.18,2.92-6.94v-2.68c0-3.94-1.91-5.81-6.05-5.81s-6.13,2.15-6.13,6.01"/>
  <path class="st1" d="M105.09,72.79c-5.57-4.4-12.24-4.87-14.86-4.87-1.38,0-2.65.12-3.58.34l-.37.09c-3.53.83-9.43,2.23-16.3,10.75l-.2.25c-.11.16-.17.34-.17.52,0,.16.04.31.12.45l.16.26c1.13,1.9,2.08,3.54,2.83,4.94.27.52.99.69,1.47.21.05-.06.1-.13.13-.18,5.93-8.21,10.58-9.3,13.66-10.03l.38-.09c.42-.1,1.11-.16,1.88-.16,1.43,0,6.4.24,10.28,3.3,3.45,2.72,5.2,7.08,5.2,12.94,0,9.82-4.75,13.65-8.74,15.13-1.52.57-3.16.86-4.87.86-4.11,0-7.26-1.64-7.31-1.67l-.29-.14c-3.43-1.49-8.55-4.59-13.38-14.31-9.92-19.92-18.25-21.81-23.77-23.06l-.29-.06c-.42-.1-1.62-.32-3.56-.32-3.2,0-9.34.63-14.61,4.83-3.6,2.87-7.88,8.44-7.88,18.7,0,6.25,1.29,10.38,4.59,14.72.62.85,6.37,8.27,17.41,8.27,1.64,0,3.33-.17,5.04-.49,2.01-.39,5.12-1.38,8.6-3.93l2.9,2.62c.32.3.88.27,1.18-.05.14-.15.22-.35.21-.55l2.25-13.83v-.16c0-.23-.11-.46-.27-.6-.15-.14-.34-.21-.58-.21h0l-13.46,3.72-.26.04c-.17.04-.32.12-.43.25-.15.17-.23.38-.22.61.01.22.11.43.28.58l2.79,2.52c-1.47.9-2.93,1.5-4.36,1.77-1.21.23-2.42.35-3.57.35-7.63,0-11.38-5.01-11.54-5.22l-.08-.1c-2.32-3.05-3.1-5.64-3.1-10.29,0-5.88,1.72-10.23,5.11-12.94,3.78-3.01,8.63-3.25,10.03-3.25.76,0,1.46.06,1.91.16l.3.07c4.41,1,10.44,2.36,18.8,19.16,4.42,8.87,9.95,14.67,16.92,17.73.81.41,5.13,2.47,10.66,2.47,2.58,0,5.09-.44,7.44-1.32,4.07-1.52,13.53-6.7,13.53-22.04,0-10.25-4.35-15.83-8-18.72"/>
  <path class="st1" d="M43.03,19.35v-5.4c0-1.75.82-3.01,2.8-3.01,2.07,0,2.65,1.15,2.65,2.8v1.32h-1.71v-1.46c0-.69-.23-1.09-.91-1.09s-.96.48-.96,1.15v5.99c0,.67.28,1.15.96,1.15s.91-.43.91-1.09v-2.06h1.71v1.93c0,1.6-.66,2.78-2.65,2.78s-2.8-1.28-2.8-3.01Z"/>
  <path class="st1" d="M49.48,19.35v-5.4c0-1.75.86-3.01,2.83-3.01s2.85,1.27,2.85,3.01v5.4c0,1.73-.86,3.01-2.85,3.01s-2.83-1.28-2.83-3.01ZM53.28,19.64v-5.99c0-.67-.3-1.15-.97-1.15s-.95.48-.95,1.15v5.99c0,.67.3,1.15.95,1.15s.97-.48.97-1.15Z"/>
  <path class="st1" d="M57.79,15.22v7.01h-1.58v-11.16h1.84l2.02,6.4v-6.4h1.56v11.16h-1.65l-2.21-7.01Z"/>
  <path class="st1" d="M62.6,19.82v-1.5h1.74v1.53c0,.63.28.99.92.99.59,0,.86-.39.86-.99v-.43c0-.64-.26-1.04-.84-1.58l-1.1-1.1c-1.07-1.05-1.56-1.7-1.56-2.98v-.38c0-1.38.81-2.45,2.63-2.45s2.62.92,2.62,2.54v.91h-1.71v-.97c0-.64-.3-.95-.89-.95-.53,0-.89.3-.89.92v.23c0,.63.35.99.89,1.51l1.2,1.19c1.02,1.04,1.51,1.66,1.51,2.9v.54c0,1.53-.82,2.62-2.73,2.62s-2.65-1.07-2.65-2.53Z"/>
  <path class="st1" d="M74.4,11.07v8.44c0,1.73-.74,2.85-2.65,2.85s-2.8-1.12-2.8-2.85v-8.44h1.88v8.63c0,.66.26,1.1.92,1.1s.92-.44.92-1.1v-8.63h1.73Z"/>
  <path class="st1" d="M80.6,14.99h-.05l-1.27,7.24h-.87l-1.4-7.24h-.03v7.24h-1.55v-11.16h2.19l1.22,6.29h.02l1.09-6.29h2.37v11.16h-1.71v-7.24Z"/>
  <path class="st1" d="M83.37,19.35v-5.4c0-1.75.86-3.01,2.83-3.01s2.85,1.27,2.85,3.01v5.4c0,1.73-.86,3.01-2.85,3.01s-2.83-1.28-2.83-3.01ZM87.17,19.64v-5.99c0-.67-.3-1.15-.97-1.15s-.96.48-.96,1.15v5.99c0,.67.3,1.15.96,1.15s.97-.48.97-1.15Z"/>
  <path class="st1" d="M91.79,11.07h4.48v1.53h-2.6v3.19h1.86v1.51h-1.86v3.39h2.6v1.53h-4.48v-11.16Z"/>
  <path class="st1" d="M43.03,27.46h2.78c1.89,0,2.58.94,2.58,2.5v2.35c0,1.56-.69,2.52-2.58,2.52h-.91v3.79h-1.88v-11.16ZM44.9,28.99v4.4h.69c.64,0,.92-.31.92-.92v-2.57c0-.61-.28-.91-.92-.91h-.69Z"/>
  <path class="st1" d="M51.4,33.5v5.12h-1.88v-11.16h2.73c1.89,0,2.58.94,2.58,2.5v1.43c0,1.2-.43,1.91-1.5,2.16l1.79,5.07h-1.98l-1.76-5.12ZM51.4,28.99v3.47h.62c.64,0,.92-.33.92-.92v-1.65c0-.61-.28-.91-.92-.91h-.62Z"/>
  <path class="st1" d="M56.01,35.74v-5.4c0-1.75.86-3.01,2.83-3.01s2.85,1.27,2.85,3.01v5.4c0,1.73-.86,3.01-2.85,3.01s-2.83-1.28-2.83-3.01ZM59.81,36.04v-5.99c0-.68-.3-1.15-.97-1.15s-.95.48-.95,1.15v5.99c0,.67.3,1.15.95,1.15s.97-.48.97-1.15Z"/>
  <path class="st1" d="M68.54,30.46v5.17c0,1.71-.71,3-2.72,3h-2.9v-11.16h2.9c2.01,0,2.72,1.27,2.72,3ZM65.59,37.09c.77,0,1.07-.46,1.07-1.14v-5.84c0-.66-.3-1.12-1.07-1.12h-.79v8.1h.79Z"/>
  <path class="st1" d="M75.22,27.46v8.44c0,1.73-.74,2.85-2.65,2.85s-2.8-1.12-2.8-2.85v-8.44h1.88v8.63c0,.66.26,1.1.92,1.1s.92-.44.92-1.1v-8.63h1.73Z"/>
  <path class="st1" d="M78.43,39.76c.53-.02.61-.13.61-.26,0-.12-.1-.18-.26-.18h-.08v-.61c-1.6-.2-2.25-1.4-2.25-2.96v-5.4c0-1.75.82-3.01,2.8-3.01,2.07,0,2.65,1.15,2.65,2.8v1.32h-1.71v-1.46c0-.69-.23-1.09-.91-1.09s-.95.48-.95,1.15v5.99c0,.67.28,1.15.95,1.15s.91-.43.91-1.09v-2.06h1.71v1.93c0,1.56-.63,2.72-2.49,2.78v.15c.44.07.69.23.69.59,0,.51-.48.79-1.66.79v-.53Z"/>
  <path class="st1" d="M82.77,38.62l2.11-11.16h2.14l2.12,11.16h-1.93l-.35-2.04h-1.99l-.33,2.04h-1.78ZM84.24,27.02c.03-.77.33-1.4,1.15-1.4.48,0,.87.28,1.12.28.13,0,.23-.08.23-.25h.92c-.03.77-.33,1.4-1.15,1.4-.48,0-.87-.28-1.12-.28-.13,0-.23.08-.23.25h-.92ZM85.13,35.08h1.5l-.74-4.48h-.02l-.74,4.48Z"/>
  <path class="st1" d="M90.08,35.74v-5.4c0-1.75.86-3.01,2.83-3.01s2.85,1.27,2.85,3.01v5.4c0,1.73-.86,3.01-2.85,3.01s-2.83-1.28-2.83-3.01ZM93.88,36.04v-5.99c0-.68-.3-1.15-.97-1.15s-.95.48-.95,1.15v5.99c0,.67.3,1.15.95,1.15s.97-.48.97-1.15Z"/>
  <path class="st1" d="M44.9,49.89v5.12h-1.88v-11.16h2.73c1.89,0,2.58.94,2.58,2.5v1.43c0,1.2-.43,1.91-1.5,2.16l1.79,5.07h-1.98l-1.76-5.12ZM44.9,45.38v3.47h.63c.64,0,.92-.33.92-.92v-1.65c0-.61-.28-.91-.92-.91h-.63Z"/>
  <path class="st1" d="M49.41,43.85h4.48v1.53h-2.6v3.19h1.86v1.51h-1.86v3.39h2.6v1.53h-4.48v-11.16Z"/>
  <path class="st1" d="M54.83,52.61v-1.5h1.75v1.53c0,.62.28.99.92.99.59,0,.86-.4.86-.99v-.43c0-.64-.26-1.04-.84-1.58l-1.1-1.1c-1.07-1.05-1.56-1.7-1.56-2.98v-.38c0-1.38.81-2.45,2.63-2.45s2.62.92,2.62,2.54v.91h-1.71v-.97c0-.64-.3-.95-.89-.95-.53,0-.89.3-.89.92v.23c0,.62.35.99.89,1.51l1.2,1.19c1.02,1.04,1.51,1.66,1.51,2.9v.54c0,1.53-.82,2.62-2.73,2.62s-2.65-1.07-2.65-2.54Z"/>
  <path class="st1" d="M61.23,43.85h2.78c1.89,0,2.58.94,2.58,2.5v2.35c0,1.56-.69,2.52-2.58,2.52h-.91v3.79h-1.88v-11.16ZM63.11,45.38v4.4h.69c.64,0,.92-.31.92-.92v-2.57c0-.61-.28-.91-.92-.91h-.69Z"/>
  <path class="st1" d="M67.61,52.13v-5.4c0-1.75.86-3.01,2.83-3.01s2.85,1.27,2.85,3.01v5.4c0,1.73-.86,3.01-2.85,3.01s-2.83-1.28-2.83-3.01ZM71.42,52.43v-5.99c0-.67-.3-1.15-.97-1.15s-.95.48-.95,1.15v5.99c0,.67.3,1.15.95,1.15s.97-.48.97-1.15Z"/>
  <path class="st1" d="M75.99,48v7.01h-1.58v-11.16h1.84l2.02,6.4v-6.4h1.56v11.16h-1.65l-2.21-7.01Z"/>
  <path class="st1" d="M80.86,52.61v-1.5h1.75v1.53c0,.62.28.99.92.99.59,0,.86-.4.86-.99v-.43c0-.64-.26-1.04-.84-1.58l-1.1-1.1c-1.07-1.05-1.56-1.7-1.56-2.98v-.38c0-1.38.81-2.45,2.63-2.45s2.62.92,2.62,2.54v.91h-1.71v-.97c0-.64-.3-.95-.89-.95-.53,0-.89.3-.89.92v.23c0,.62.35.99.89,1.51l1.2,1.19c1.02,1.04,1.51,1.66,1.51,2.9v.54c0,1.53-.82,2.62-2.73,2.62s-2.65-1.07-2.65-2.54Z"/>
  <path class="st1" d="M86.97,55.01l2.11-11.16h2.14l2.12,11.16h-1.93l-.35-2.04h-1.99l-.33,2.04h-1.78ZM91.68,43.06l-2.95.38v-1.05l2.95-.63v1.3ZM89.32,51.47h1.5l-.74-4.48h-.02l-.74,4.48Z"/>
  <path class="st1" d="M100.17,43.85l-2.12,11.16h-2.04l-2.12-11.16h1.91l1.28,7.79h.02l1.32-7.79h1.76Z"/>
  <path class="st1" d="M100.99,43.85h4.48v1.53h-2.6v3.19h1.86v1.51h-1.86v3.39h2.6v1.53h-4.48v-11.16Z"/>
  <path class="st1" d="M106.51,43.85h1.88v11.16h-1.88v-11.16Z"/>
  <path class="st1" d="M109.4,52.61v-1.5h1.75v1.53c0,.62.28.99.92.99.59,0,.86-.4.86-.99v-.43c0-.64-.26-1.04-.84-1.58l-1.1-1.1c-1.07-1.05-1.56-1.7-1.56-2.98v-.38c0-1.38.81-2.45,2.63-2.45s2.62.92,2.62,2.54v.91h-1.71v-.97c0-.64-.3-.95-.89-.95-.53,0-.89.3-.89.92v.23c0,.62.35.99.89,1.51l1.2,1.19c1.02,1.04,1.51,1.66,1.51,2.9v.54c0,1.53-.82,2.62-2.73,2.62s-2.65-1.07-2.65-2.54Z"/>
</svg>