<?xml version="1.0" encoding="UTF-8"?>
<svg id="Camada_1" xmlns="http://www.w3.org/2000/svg" version="1.1" viewBox="0 0 136 136">
  <!-- Generator: Adobe Illustrator 30.2.1, SVG Export Plug-In . SVG Version: 2.1.1 Build 1)  -->
  <defs>
    <style>
      .st0 {
        fill: #fff;
      }

      .st1 {
        fill: #1b4668;
      }
    </style>
  </defs>
  <rect class="st1" x="-.56" y="-.35" width="136.52" height="136.53"/>
  <polygon class="st0" points="19.87 11.09 19.87 38.62 15.24 38.62 15.24 17.55 15.2 17.55 11.95 20.92 11.91 20.92 11.91 16.08 16.18 11.09 19.87 11.09"/>
  <polygon class="st0" points="21.98 11.09 33.6 11.09 33.6 15.35 27.55 38.62 22.96 38.62 29.13 14.87 21.98 14.87 21.98 11.09"/>
  <path class="st0" d="M102.4,82.45c0-9.59-7.63-17.42-17.13-17.77-2.44-6.9-9.04-11.86-16.77-11.86s-14.32,4.96-16.77,11.86c-9.5.35-17.12,8.18-17.12,17.77,0,5.69,2.69,10.76,6.86,14.02-.45,1.57-.7,3.22-.7,4.94,0,9.8,7.98,17.78,17.78,17.78,3.72,0,7.18-1.15,10.04-3.11,2.83,1.89,6.22,3,9.87,3,9.8,0,17.78-7.98,17.78-17.78,0-1.68-.24-3.3-.67-4.84,4.16-3.26,6.83-8.32,6.83-14M82.71,70.6c0,7.12-5.27,13.01-12.11,14.03-.11-.71-.18-1.44-.18-2.18,0-7.12,5.27-13.01,12.11-14.03.11.71.19,1.44.19,2.18M68.58,111.46c-2.66-2.58-4.32-6.19-4.32-10.17s1.6-7.49,4.18-10.06c2.66,2.58,4.32,6.19,4.32,10.18s-1.6,7.48-4.18,10.05M54.49,68.42c6.84,1.02,12.11,6.91,12.11,14.03,0,.74-.08,1.47-.19,2.18-6.84-1.02-12.11-6.91-12.11-14.03,0-.74.08-1.47.19-2.18M65.08,88.8c-2.34,4.65-7.14,7.85-12.68,7.85-2.35,0-4.57-.59-6.52-1.6,2.34-4.65,7.14-7.85,12.68-7.85,2.35,0,4.57.58,6.52,1.6M71.89,88.71c1.97-1.03,4.2-1.62,6.57-1.62,5.58,0,10.41,3.25,12.73,7.95-1.97,1.03-4.2,1.62-6.57,1.62-5.58,0-10.41-3.25-12.73-7.95M68.51,56.4c5.82,0,10.83,3.52,13.02,8.54-5.78,1.02-10.6,4.83-13.02,9.99-2.42-5.16-7.24-8.97-13.02-9.99,2.19-5.02,7.2-8.54,13.02-8.54M38.2,82.45c0-7.32,5.56-13.36,12.68-14.12-.09.74-.15,1.5-.15,2.27,0,5.2,2.24,9.88,5.81,13.13-5.9.67-10.93,4.24-13.63,9.24-2.88-2.6-4.71-6.35-4.71-10.53M44.36,101.4c0-1.01.11-1.99.31-2.94,2.34,1.13,4.96,1.77,7.73,1.77,3.11,0,6.04-.81,8.59-2.22-.2,1.06-.31,2.15-.31,3.27,0,4.8,1.92,9.17,5.03,12.37-2.1,1.23-4.54,1.95-7.14,1.95-7.83,0-14.2-6.37-14.2-14.2M92.66,101.29c0,7.83-6.37,14.2-14.2,14.2-2.55,0-4.93-.68-7-1.86,3.02-3.19,4.88-7.49,4.88-12.22,0-1.16-.12-2.3-.33-3.4,2.55,1.42,5.49,2.23,8.61,2.23,2.78,0,5.41-.64,7.75-1.79.19.92.29,1.87.29,2.84M80.59,83.64c3.5-3.25,5.7-7.89,5.7-13.03,0-.77-.05-1.53-.15-2.27,7.12.76,12.68,6.8,12.68,14.12,0,4.16-1.81,7.89-4.67,10.49-2.68-5.01-7.68-8.6-13.57-9.31"/>
  <path class="st0" d="M39.61,11.06h2.78c1.89,0,2.58.94,2.58,2.5v2.35c0,1.56-.69,2.52-2.58,2.52h-.91v3.79h-1.88v-11.16ZM41.49,12.59v4.39h.69c.64,0,.92-.31.92-.92v-2.57c0-.61-.28-.91-.92-.91h-.69Z"/>
  <path class="st0" d="M45.24,22.22l2.11-11.16h2.14l2.12,11.16h-1.93l-.35-2.04h-1.99l-.33,2.04h-1.78ZM47.59,18.68h1.5l-.74-4.48h-.02l-.74,4.48Z"/>
  <path class="st0" d="M53.85,17.1v5.12h-1.88v-11.16h2.73c1.89,0,2.58.94,2.58,2.5v1.43c0,1.2-.43,1.91-1.5,2.16l1.79,5.07h-1.97l-1.76-5.12ZM53.85,12.59v3.47h.62c.64,0,.92-.33.92-.92v-1.65c0-.61-.28-.91-.92-.91h-.62Z"/>
  <path class="st0" d="M57.9,19.34v-5.4c0-1.74.82-3.01,2.8-3.01,2.07,0,2.65,1.15,2.65,2.8v1.32h-1.71v-1.46c0-.69-.23-1.09-.91-1.09s-.95.48-.95,1.15v5.99c0,.67.28,1.15.95,1.15s.91-.43.91-1.09v-2.06h1.71v1.93c0,1.6-.66,2.78-2.65,2.78s-2.8-1.28-2.8-3.01Z"/>
  <path class="st0" d="M63.95,11.06h4.48v1.53h-2.6v3.19h1.86v1.51h-1.86v3.39h2.6v1.53h-4.48v-11.16Z"/>
  <path class="st0" d="M70.9,17.1v5.12h-1.88v-11.16h2.73c1.89,0,2.58.94,2.58,2.5v1.43c0,1.2-.43,1.91-1.5,2.16l1.79,5.07h-1.97l-1.76-5.12ZM70.9,12.59v3.47h.62c.64,0,.92-.33.92-.92v-1.65c0-.61-.28-.91-.92-.91h-.62Z"/>
  <path class="st0" d="M74.93,11.06h1.88v11.16h-1.88v-11.16Z"/>
  <path class="st0" d="M77.19,22.22l2.11-11.16h2.14l2.12,11.16h-1.93l-.34-2.04h-1.99l-.33,2.04h-1.78ZM79.54,18.68h1.5l-.74-4.48h-.02l-.74,4.48Z"/>
  <path class="st0" d="M83.82,19.81v-1.5h1.74v1.53c0,.62.28.99.92.99.59,0,.86-.4.86-.99v-.43c0-.64-.26-1.04-.84-1.58l-1.1-1.1c-1.07-1.05-1.56-1.7-1.56-2.98v-.38c0-1.38.81-2.45,2.63-2.45s2.62.92,2.62,2.54v.9h-1.71v-.97c0-.64-.3-.95-.89-.95-.53,0-.89.3-.89.92v.23c0,.63.35.99.89,1.51l1.2,1.18c1.02,1.04,1.51,1.66,1.51,2.9v.54c0,1.53-.82,2.62-2.73,2.62s-2.65-1.07-2.65-2.54Z"/>
  <path class="st0" d="M91.09,11.06h4.48v1.53h-2.6v3.19h1.86v1.51h-1.86v3.39h2.6v1.53h-4.48v-11.16Z"/>
  <path class="st0" d="M102.63,14.98h-.05l-1.27,7.24h-.87l-1.4-7.24h-.03v7.24h-1.55v-11.16h2.19l1.22,6.29h.02l1.09-6.29h2.37v11.16h-1.71v-7.24Z"/>
  <path class="st0" d="M105,11.06h4.48v1.53h-2.6v3.19h1.86v1.51h-1.86v3.39h2.6v1.53h-4.48v-11.16Z"/>
  <path class="st0" d="M110.07,11.06h1.88v11.16h-1.88v-11.16Z"/>
  <path class="st0" d="M112.6,19.34v-5.4c0-1.74.86-3.01,2.83-3.01s2.85,1.27,2.85,3.01v5.4c0,1.73-.86,3.01-2.85,3.01s-2.83-1.28-2.83-3.01ZM116.41,19.63v-5.99c0-.67-.3-1.15-.97-1.15s-.96.48-.96,1.15v5.99c0,.67.3,1.15.96,1.15s.97-.48.97-1.15Z"/>
  <path class="st0" d="M118.84,19.81v-1.5h1.74v1.53c0,.62.28.99.92.99.59,0,.86-.4.86-.99v-.43c0-.64-.26-1.04-.84-1.58l-1.1-1.1c-1.07-1.05-1.56-1.7-1.56-2.98v-.38c0-1.38.81-2.45,2.63-2.45s2.62.92,2.62,2.54v.9h-1.71v-.97c0-.64-.3-.95-.89-.95-.53,0-.89.3-.89.92v.23c0,.63.34.99.89,1.51l1.2,1.18c1.02,1.04,1.51,1.66,1.51,2.9v.54c0,1.53-.82,2.62-2.73,2.62s-2.65-1.07-2.65-2.54Z"/>
  <path class="st0" d="M45.32,30.31v5.25c0,1.74-.72,3.04-2.76,3.04h-2.94v-11.33h2.94c2.04,0,2.76,1.29,2.76,3.04ZM42.33,37.05c.79,0,1.09-.47,1.09-1.15v-5.93c0-.67-.3-1.14-1.09-1.14h-.8v8.22h.8Z"/>
  <path class="st0" d="M46.22,27.27h4.55v1.55h-2.64v3.24h1.89v1.54h-1.89v3.44h2.64v1.55h-4.55v-11.33Z"/>
  <path class="st0" d="M53.16,27.27h1.91v11.33h-1.91v-11.33Z"/>
  <path class="st0" d="M61.23,31.25h-.05l-1.29,7.35h-.89l-1.42-7.35h-.03v7.35h-1.57v-11.33h2.22l1.24,6.38h.02l1.1-6.38h2.41v11.33h-1.74v-7.35Z"/>
  <path class="st0" d="M63.87,27.27h2.82c1.92,0,2.62.95,2.62,2.54v2.39c0,1.59-.7,2.56-2.62,2.56h-.92v3.84h-1.91v-11.33ZM65.78,28.82v4.46h.7c.65,0,.94-.32.94-.94v-2.61c0-.62-.28-.92-.94-.92h-.7Z"/>
  <path class="st0" d="M70.11,27.27h1.91v9.78h2.27v1.55h-4.18v-11.33Z"/>
  <path class="st0" d="M74.97,27.27h4.55v1.55h-2.64v3.24h1.89v1.54h-1.89v3.44h2.64v1.55h-4.55v-11.33Z"/>
  <path class="st0" d="M85.58,31.25h-.05l-1.29,7.35h-.89l-1.42-7.35h-.03v7.35h-1.57v-11.33h2.22l1.24,6.38h.02l1.1-6.38h2.41v11.33h-1.74v-7.35Z"/>
  <path class="st0" d="M88.22,27.27h4.55v1.55h-2.64v3.24h1.89v1.54h-1.89v3.44h2.64v1.55h-4.55v-11.33Z"/>
  <path class="st0" d="M95.19,31.48v7.12h-1.6v-11.33h1.87l2.06,6.5v-6.5h1.59v11.33h-1.67l-2.24-7.12Z"/>
  <path class="st0" d="M99.79,27.27h5.06v1.55h-1.57v9.78h-1.92v-9.78h-1.57v-1.55Z"/>
  <path class="st0" d="M105.25,38.6l2.14-11.33h2.17l2.16,11.33h-1.96l-.35-2.07h-2.02l-.33,2.07h-1.8ZM107.64,35.01h1.52l-.75-4.55h-.02l-.75,4.55Z"/>
  <path class="st0" d="M114.35,39.75c.53-.02.62-.13.62-.27,0-.12-.1-.18-.27-.18h-.08v-.62c-1.62-.2-2.29-1.42-2.29-3.01v-5.48c0-1.77.83-3.06,2.84-3.06,2.11,0,2.69,1.17,2.69,2.84v1.34h-1.74v-1.49c0-.7-.23-1.1-.92-1.1s-.97.49-.97,1.17v6.08c0,.69.28,1.17.97,1.17s.92-.43.92-1.1v-2.09h1.74v1.96c0,1.59-.63,2.76-2.52,2.82v.15c.45.07.7.23.7.6,0,.52-.48.8-1.69.8v-.54Z"/>
  <path class="st0" d="M118.41,38.6l2.14-11.33h2.17l2.16,11.33h-1.96l-.35-2.07h-2.02l-.33,2.07h-1.8ZM119.89,26.82c.03-.79.33-1.42,1.17-1.42.49,0,.89.28,1.14.28.13,0,.23-.08.23-.25h.94c-.03.79-.33,1.42-1.17,1.42-.48,0-.89-.28-1.14-.28-.13,0-.23.08-.23.25h-.94ZM120.8,35.01h1.52l-.75-4.55h-.02l-.75,4.55Z"/>
  <path class="st0" d="M125.48,35.68v-5.48c0-1.77.87-3.06,2.87-3.06s2.89,1.29,2.89,3.06v5.48c0,1.75-.87,3.06-2.89,3.06s-2.87-1.3-2.87-3.06ZM129.34,35.98v-6.08c0-.69-.3-1.17-.99-1.17s-.97.49-.97,1.17v6.08c0,.69.3,1.17.97,1.17s.99-.48.99-1.17Z"/>
</svg>