<?xml version="1.0" encoding="UTF-8"?>
<svg id="Camada_1" xmlns="http://www.w3.org/2000/svg" version="1.1" viewBox="0 0 136 136">
  <!-- Generator: Adobe Illustrator 30.2.1, SVG Export Plug-In . SVG Version: 2.1.1 Build 1)  -->
  <defs>
    <style>
      .st0 {
        fill: #fff;
      }

      .st1 {
        fill: #d4a03d;
      }
    </style>
  </defs>
  <rect class="st1" x="-.56" y="-.35" width="136.52" height="136.53"/>
  <path class="st0" d="M24.98,34.84h-7.59v-1.3c0-2.15.77-2.96,1.95-4.22l2.96-3.12c2.4-2.56,2.92-4.18,2.92-6.94v-2.68c0-3.94-1.91-5.81-6.05-5.81s-6.13,2.15-6.13,6.01v3.33h4.22v-3.45c0-1.66.81-2.15,1.79-2.15.89,0,1.66.37,1.66,2.07v2.27c0,2.27-.2,3.17-1.71,4.75l-2.6,2.76c-2.51,2.68-3.45,4.47-3.45,7.19v5.07h12.02v-3.78Z"/>
  <path class="st0" d="M53.9,115.66v1.92s0,.03,0,.04c0,.02,0,.03,0,.04.02.47.41.85.89.86,0,0,.01,0,.02,0,0,0,.02,0,.02,0h22.52s.01,0,.02,0c0,0,.01,0,.02,0,.49,0,.88-.41.89-.9,0,0,0,0,0,0,0,0,0,0,0,0v-2.17c12.68-4.16,22.18-14.43,24.26-26.95,0-.03,0-.05.01-.07,0-.04.01-.08.01-.13,0-.5-.41-.91-.91-.91H29.88c-.51,0-.91.41-.91.91l.05.41c2.19,12.64,11.95,22.97,24.89,26.96"/>
  <path class="st0" d="M78.25,56.75c-.3.42-7.23,10.4.16,18.48,3.39,3.71,3.09,6.97,2.12,9.18h4.74c.96-3.26.56-7.35-3.28-11.55-5.44-5.95.07-13.99.15-14.11.65-.92.3-2.1-.77-2.65-1.07-.55-2.47-.26-3.12.66"/>
  <path class="st0" d="M66.25,84.41h4.74c.96-3.26.56-7.35-3.29-11.55-5.44-5.95.06-13.99.15-14.12.65-.91.3-2.09-.77-2.65-1.07-.55-2.47-.26-3.11.66-.3.42-7.24,10.4.15,18.48,3.39,3.71,3.09,6.98,2.13,9.18"/>
  <path class="st0" d="M49.69,56.75c-.3.42-7.23,10.4.15,18.48,3.39,3.71,3.09,6.98,2.13,9.18h4.74c.96-3.26.56-7.35-3.29-11.55-5.44-5.95.07-13.99.16-14.12.64-.91.3-2.1-.77-2.65-1.07-.55-2.46-.26-3.11.66"/>
  <path class="st0" d="M38.44,8.56h4.39v1.53h-2.52v3.19h1.88v1.51h-1.88v4.92h-1.88v-11.16Z"/>
  <path class="st0" d="M43.8,16.83v-5.4c0-1.74.86-3.01,2.83-3.01s2.85,1.27,2.85,3.01v5.4c0,1.73-.86,3.01-2.85,3.01s-2.83-1.28-2.83-3.01ZM47.6,17.13v-5.99c0-.67-.3-1.15-.97-1.15s-.95.48-.95,1.15v5.99c0,.67.3,1.15.95,1.15s.97-.48.97-1.15Z"/>
  <path class="st0" d="M55.86,12.47h-.05l-1.27,7.24h-.87l-1.4-7.24h-.03v7.24h-1.55v-11.16h2.19l1.22,6.29h.02l1.09-6.29h2.37v11.16h-1.71v-7.24Z"/>
  <path class="st0" d="M58.79,8.56h4.48v1.53h-2.6v3.19h1.86v1.51h-1.86v3.39h2.6v1.53h-4.48v-11.16Z"/>
  <path class="st0" d="M68.13,18.18h2.85v1.53h-4.81v-1.53l2.95-8.1h-2.65v-1.53h4.62v1.53l-2.96,8.1Z"/>
  <path class="st0" d="M72.22,8.56h4.48v1.53h-2.6v3.19h1.86v1.51h-1.86v3.39h2.6v1.53h-4.48v-11.16Z"/>
  <path class="st0" d="M79.71,14.6v5.12h-1.88v-11.16h2.73c1.89,0,2.58.94,2.58,2.5v1.43c0,1.2-.43,1.91-1.5,2.16l1.79,5.07h-1.98l-1.76-5.12ZM79.71,10.09v3.47h.63c.64,0,.92-.33.92-.92v-1.65c0-.61-.28-.91-.92-.91h-.63Z"/>
  <path class="st0" d="M84.3,16.83v-5.4c0-1.74.86-3.01,2.83-3.01s2.85,1.27,2.85,3.01v5.4c0,1.73-.86,3.01-2.85,3.01s-2.83-1.28-2.83-3.01ZM88.11,17.13v-5.99c0-.67-.3-1.15-.97-1.15s-.95.48-.95,1.15v5.99c0,.67.3,1.15.95,1.15s.97-.48.97-1.15Z"/>
  <path class="st0" d="M38.4,24.04h4.48v1.53h-2.6v3.19h1.86v1.51h-1.86v3.39h2.6v1.53h-4.48v-11.16Z"/>
  <path class="st0" d="M45.64,35.2l2.11-11.16h2.14l2.12,11.16h-1.93l-.35-2.04h-1.99l-.33,2.04h-1.78ZM48,31.66h1.5l-.74-4.48h-.02l-.74,4.48Z"/>
  <path class="st0" d="M55.78,29.24h2.67v5.96h-1.35v-1.22c-.25.84-.77,1.35-1.79,1.35-1.61,0-2.35-1.28-2.35-3.01v-5.4c0-1.74.84-3.01,2.81-3.01,2.07,0,2.68,1.15,2.68,2.8v.99h-1.71v-1.14c0-.69-.26-1.09-.94-1.09s-.97.48-.97,1.15v5.99c0,.67.28,1.15.92,1.15s.92-.35.92-1.07v-1.98h-.89v-1.48Z"/>
  <path class="st0" d="M61.56,30.08v5.12h-1.88v-11.16h2.73c1.89,0,2.58.94,2.58,2.5v1.43c0,1.2-.43,1.91-1.5,2.16l1.79,5.07h-1.98l-1.76-5.12ZM61.56,25.57v3.47h.63c.64,0,.92-.33.92-.92v-1.65c0-.61-.28-.91-.92-.91h-.63Z"/>
  <path class="st0" d="M66.18,24.04h1.88v11.16h-1.88v-11.16Z"/>
  <path class="st0" d="M69.31,32.32v-5.4c0-1.74.82-3.01,2.8-3.01,2.07,0,2.65,1.15,2.65,2.8v1.32h-1.71v-1.46c0-.69-.23-1.09-.91-1.09s-.95.48-.95,1.15v5.99c0,.67.28,1.15.95,1.15s.91-.43.91-1.09v-2.06h1.71v1.93c0,1.6-.66,2.78-2.65,2.78s-2.8-1.28-2.8-3.01Z"/>
  <path class="st0" d="M81.39,24.04v8.44c0,1.73-.74,2.85-2.65,2.85s-2.8-1.12-2.8-2.85v-8.44h1.88v8.62c0,.66.26,1.1.92,1.1s.92-.44.92-1.1v-8.62h1.73Z"/>
  <path class="st0" d="M82.61,24.04h1.88v9.63h2.24v1.53h-4.11v-11.16Z"/>
  <path class="st0" d="M87.53,24.04h4.99v1.53h-1.55v9.63h-1.89v-9.63h-1.55v-1.53Z"/>
  <path class="st0" d="M99,24.04v8.44c0,1.73-.74,2.85-2.65,2.85s-2.8-1.12-2.8-2.85v-8.44h1.88v8.62c0,.66.26,1.1.92,1.1s.92-.44.92-1.1v-8.62h1.73Z"/>
  <path class="st0" d="M102.11,30.08v5.12h-1.88v-11.16h2.73c1.89,0,2.58.94,2.58,2.5v1.43c0,1.2-.43,1.91-1.5,2.16l1.79,5.07h-1.98l-1.76-5.12ZM102.11,25.57v3.47h.63c.64,0,.92-.33.92-.92v-1.65c0-.61-.28-.91-.92-.91h-.63Z"/>
  <path class="st0" d="M106.44,35.2l2.11-11.16h2.14l2.12,11.16h-1.93l-.35-2.04h-1.99l-.33,2.04h-1.78ZM108.79,31.66h1.5l-.74-4.48h-.02l-.74,4.48Z"/>
  <path class="st0" d="M38.3,48.07v-1.5h1.74v1.53c0,.62.28.99.92.99.59,0,.86-.4.86-.99v-.43c0-.64-.26-1.04-.84-1.58l-1.1-1.1c-1.07-1.05-1.56-1.69-1.56-2.98v-.38c0-1.38.81-2.45,2.63-2.45s2.62.92,2.62,2.53v.91h-1.71v-.97c0-.64-.3-.95-.89-.95-.53,0-.89.3-.89.92v.23c0,.62.35.99.89,1.51l1.2,1.18c1.02,1.04,1.51,1.66,1.51,2.9v.54c0,1.53-.82,2.62-2.73,2.62s-2.65-1.07-2.65-2.53Z"/>
  <path class="st0" d="M50.27,39.32v8.44c0,1.73-.74,2.85-2.65,2.85s-2.8-1.12-2.8-2.85v-8.44h1.88v8.62c0,.66.26,1.1.92,1.1s.92-.44.92-1.1v-8.62h1.73Z"/>
  <path class="st0" d="M51.4,48.07v-1.5h1.74v1.53c0,.62.28.99.92.99.59,0,.86-.4.86-.99v-.43c0-.64-.26-1.04-.84-1.58l-1.1-1.1c-1.07-1.05-1.56-1.69-1.56-2.98v-.38c0-1.38.81-2.45,2.63-2.45s2.62.92,2.62,2.53v.91h-1.71v-.97c0-.64-.3-.95-.89-.95-.53,0-.89.3-.89.92v.23c0,.62.35.99.89,1.51l1.2,1.18c1.02,1.04,1.51,1.66,1.51,2.9v.54c0,1.53-.82,2.62-2.73,2.62s-2.65-1.07-2.65-2.53Z"/>
  <path class="st0" d="M57.72,39.32h4.99v1.53h-1.55v9.63h-1.89v-9.63h-1.55v-1.53Z"/>
  <path class="st0" d="M63.75,39.32h4.48v1.53h-2.6v3.19h1.86v1.51h-1.86v3.39h2.6v1.53h-4.48v-11.16Z"/>
  <path class="st0" d="M70.96,43.46v7.01h-1.58v-11.16h1.84l2.02,6.4v-6.4h1.56v11.16h-1.65l-2.21-7.01Z"/>
  <path class="st0" d="M75.83,39.32h4.99v1.53h-1.55v9.63h-1.89v-9.63h-1.55v-1.53Z"/>
  <path class="st0" d="M81.56,50.48l2.11-11.16h2.14l2.12,11.16h-1.93l-.35-2.04h-1.99l-.33,2.04h-1.78ZM86.26,38.53l-2.95.38v-1.05l2.95-.63v1.3ZM83.91,46.94h1.5l-.74-4.48h-.02l-.74,4.48Z"/>
  <path class="st0" d="M94.87,39.32l-2.12,11.16h-2.04l-2.12-11.16h1.91l1.28,7.78h.02l1.32-7.78h1.76Z"/>
  <path class="st0" d="M95.81,39.32h4.48v1.53h-2.6v3.19h1.86v1.51h-1.86v3.39h2.6v1.53h-4.48v-11.16Z"/>
  <path class="st0" d="M101.45,39.32h1.88v9.63h2.24v1.53h-4.11v-11.16Z"/>
</svg>