<?xml version="1.0" encoding="UTF-8"?>
<svg id="Camada_1" xmlns="http://www.w3.org/2000/svg" version="1.1" viewBox="0 0 136 136">
  <!-- Generator: Adobe Illustrator 30.2.1, SVG Export Plug-In . SVG Version: 2.1.1 Build 1)  -->
  <defs>
    <style>
      .st0 {
        fill: #b8222e;
      }

      .st1 {
        fill: #fff;
      }
    </style>
  </defs>
  <rect class="st0" x="-.56" y="-.35" width="136.52" height="136.53"/>
  <path class="st1" d="M20.83,38.62h4.38v-4.47h1.87v-3.61h-1.87V11.09h-4.55l-8,20.22v2.84h8.16v4.47ZM16.73,30.54l4.14-11.33h.04v11.33h-4.18Z"/>
  <polygon class="st1" points="59.98 72.85 35.5 58.72 35.5 104.45 59.98 111.84 59.98 72.85"/>
  <polygon class="st1" points="62.67 72.95 62.67 111.86 87.32 104.45 87.32 58.72 62.67 72.95"/>
  <path class="st1" d="M106.54,57.56c0-1.6-1.3-2.9-2.89-2.9s-2.9,1.3-2.9,2.9v3.12h5.79v-3.12Z"/>
  <polygon class="st1" points="101.47 103.64 100.75 103.64 103.64 113.77 106.54 103.64 105.82 103.64 106.54 103.64 106.54 62.95 105.82 62.95 105.1 62.95 104.34 62.95 102.89 62.95 102.18 62.95 101.47 62.95 100.75 62.95 100.75 103.64 101.47 103.64"/>
  <polygon class="st1" points="92.58 60.68 89.95 58.61 89.95 105.69 62.75 114.48 61.49 114.48 61.24 114.48 59.98 114.48 32.9 106.92 32.9 58.61 30.27 60.68 30.27 108.76 59.86 116.95 61.24 116.95 61.49 116.95 62.87 116.95 90.17 108.28 92.58 107.57 92.58 60.68"/>
  <path class="st1" d="M40.59,39.36v-.76c-1.5-.26-2.14-1.37-2.14-2.88v-5.4c0-1.74.86-3.01,2.83-3.01s2.85,1.27,2.85,3.01v5.4c0,1.22-.43,2.17-1.38,2.63l1.38.26v1.4l-3.54-.66ZM42.25,36.12v-6.09c0-.67-.3-1.15-.97-1.15s-.96.48-.96,1.15v6.09c0,.66.3,1.15.96,1.15s.97-.49.97-1.15Z"/>
  <path class="st1" d="M50.77,27.45v8.44c0,1.73-.74,2.85-2.65,2.85s-2.8-1.12-2.8-2.85v-8.44h1.88v8.62c0,.66.26,1.1.92,1.1s.92-.44.92-1.1v-8.62h1.73Z"/>
  <path class="st1" d="M51.66,38.6l2.11-11.16h2.14l2.12,11.16h-1.93l-.35-2.04h-1.99l-.33,2.04h-1.78ZM54.02,35.07h1.5l-.74-4.48h-.02l-.74,4.48Z"/>
  <path class="st1" d="M58.94,27.45h1.88v9.63h2.24v1.53h-4.11v-11.16Z"/>
  <path class="st1" d="M64.04,27.45h1.88v11.16h-1.88v-11.16Z"/>
  <path class="st1" d="M72.74,30.44v5.17c0,1.71-.71,3-2.71,3h-2.9v-11.16h2.9c2.01,0,2.71,1.27,2.71,3ZM69.8,37.07c.77,0,1.07-.46,1.07-1.14v-5.84c0-.66-.3-1.12-1.07-1.12h-.79v8.1h.79Z"/>
  <path class="st1" d="M73.65,38.6l2.11-11.16h2.14l2.12,11.16h-1.93l-.35-2.04h-1.99l-.33,2.04h-1.78ZM76,35.07h1.5l-.74-4.48h-.02l-.74,4.48Z"/>
  <path class="st1" d="M86.54,30.44v5.17c0,1.71-.71,3-2.71,3h-2.9v-11.16h2.9c2.01,0,2.71,1.27,2.71,3ZM83.59,37.07c.77,0,1.07-.46,1.07-1.14v-5.84c0-.66-.3-1.12-1.07-1.12h-.79v8.1h.79Z"/>
  <path class="st1" d="M87.74,27.45h4.48v1.53h-2.6v3.19h1.86v1.51h-1.86v3.39h2.6v1.53h-4.48v-11.16Z"/>
  <path class="st1" d="M38.45,11.09h4.48v1.53h-2.6v3.19h1.86v1.51h-1.86v3.39h2.6v1.53h-4.48v-11.16Z"/>
  <path class="st1" d="M49.67,14.08v5.17c0,1.71-.71,3-2.72,3h-2.9v-11.16h2.9c2.01,0,2.72,1.27,2.72,3ZM46.72,20.71c.77,0,1.07-.46,1.07-1.14v-5.84c0-.66-.3-1.12-1.07-1.12h-.79v8.1h.79Z"/>
  <path class="st1" d="M56.34,11.09v8.44c0,1.73-.74,2.85-2.65,2.85s-2.8-1.12-2.8-2.85v-8.44h1.88v8.62c0,.66.26,1.1.92,1.1s.92-.44.92-1.1v-8.62h1.73Z"/>
  <path class="st1" d="M57.57,19.36v-5.4c0-1.74.82-3.01,2.8-3.01,2.07,0,2.65,1.15,2.65,2.8v1.32h-1.71v-1.46c0-.69-.23-1.09-.91-1.09s-.95.48-.95,1.15v5.99c0,.67.28,1.15.95,1.15s.91-.43.91-1.09v-2.06h1.71v1.93c0,1.6-.66,2.78-2.65,2.78s-2.8-1.28-2.8-3.01Z"/>
  <path class="st1" d="M63.5,22.24l2.11-11.16h2.14l2.12,11.16h-1.93l-.35-2.04h-1.99l-.33,2.04h-1.78ZM65.85,18.71h1.5l-.74-4.48h-.02l-.74,4.48Z"/>
  <path class="st1" d="M72.38,23.38c.53-.02.61-.13.61-.26,0-.12-.1-.18-.26-.18h-.08v-.61c-1.6-.2-2.25-1.4-2.25-2.96v-5.4c0-1.74.82-3.01,2.8-3.01,2.07,0,2.65,1.15,2.65,2.8v1.32h-1.71v-1.46c0-.69-.23-1.09-.91-1.09s-.96.48-.96,1.15v5.99c0,.67.28,1.15.96,1.15s.91-.43.91-1.09v-2.06h1.71v1.93c0,1.56-.62,2.72-2.48,2.78v.15c.44.07.69.23.69.59,0,.51-.48.79-1.66.79v-.53Z"/>
  <path class="st1" d="M76.32,22.24l2.11-11.16h2.14l2.12,11.16h-1.93l-.34-2.04h-1.99l-.33,2.04h-1.78ZM77.78,10.64c.03-.77.33-1.4,1.15-1.4.48,0,.87.28,1.12.28.13,0,.23-.08.23-.25h.92c-.03.77-.33,1.4-1.15,1.4-.48,0-.87-.28-1.12-.28-.13,0-.23.08-.23.25h-.92ZM78.67,18.71h1.5l-.74-4.48h-.02l-.74,4.48Z"/>
  <path class="st1" d="M83.21,19.36v-5.4c0-1.74.86-3.01,2.83-3.01s2.85,1.27,2.85,3.01v5.4c0,1.73-.86,3.01-2.85,3.01s-2.83-1.28-2.83-3.01ZM87.01,19.66v-5.99c0-.67-.3-1.15-.97-1.15s-.95.48-.95,1.15v5.99c0,.67.3,1.15.95,1.15s.97-.48.97-1.15Z"/>
  <path class="st1" d="M96.81,14.08v5.17c0,1.71-.71,3-2.72,3h-2.9v-11.16h2.9c2.01,0,2.72,1.27,2.72,3ZM93.86,20.71c.77,0,1.07-.46,1.07-1.14v-5.84c0-.66-.3-1.12-1.07-1.12h-.79v8.1h.79Z"/>
  <path class="st1" d="M97.63,11.09h4.48v1.53h-2.6v3.19h1.86v1.51h-1.86v3.39h2.6v1.53h-4.48v-11.16Z"/>
</svg>