<?xml version="1.0" encoding="UTF-8"?>
<svg id="Camada_1" xmlns="http://www.w3.org/2000/svg" version="1.1" viewBox="0 0 24 24">
  <!-- Generator: Adobe Illustrator 30.0.0, SVG Export Plug-In . SVG Version: 2.1.1 Build 123)  -->
  <defs>
    <style>
      .st0 {
        fill: #fff;
      }
    </style>
  </defs>
  <path class="st0" d="M12,22c-1.38,0-2.68-.26-3.9-.79s-2.28-1.24-3.18-2.14-1.61-1.96-2.14-3.18-.79-2.52-.79-3.9.26-2.68.79-3.9,1.24-2.28,2.14-3.18,1.96-1.61,3.18-2.14,2.52-.79,3.9-.79,2.68.26,3.9.79,2.28,1.24,3.18,2.14,1.61,1.96,2.14,3.18.79,2.52.79,3.9v1.45c0,.98-.34,1.82-1.01,2.51s-1.5,1.04-2.49,1.04c-.58,0-1.13-.13-1.65-.38s-.95-.61-1.3-1.08c-.48.48-1.03.85-1.64,1.09s-1.25.36-1.91.36c-1.38,0-2.56-.49-3.54-1.46s-1.46-2.15-1.46-3.54.49-2.56,1.46-3.54,2.15-1.46,3.54-1.46,2.56.49,3.54,1.46,1.46,2.15,1.46,3.54v1.45c0,.43.14.8.43,1.1s.64.45,1.08.45.79-.15,1.08-.45.43-.67.43-1.1v-1.45c0-2.23-.78-4.13-2.33-5.68s-3.44-2.33-5.68-2.33-4.13.78-5.68,2.33-2.33,3.44-2.33,5.68.78,4.13,2.33,5.68,3.44,2.33,5.68,2.33h4c.28,0,.52.1.71.29s.29.43.29.71-.1.52-.29.71-.43.29-.71.29h-4ZM12,15c.83,0,1.54-.29,2.13-.88s.88-1.29.88-2.13-.29-1.54-.88-2.13-1.29-.88-2.13-.88-1.54.29-2.13.88-.88,1.29-.88,2.13.29,1.54.88,2.13,1.29.88,2.13.88Z"/>
</svg>