<?xml version="1.0" encoding="UTF-8"?>
<svg id="Camada_1" xmlns="http://www.w3.org/2000/svg" version="1.1" viewBox="0 0 24 24">
  <!-- Generator: Adobe Illustrator 30.1.0, SVG Export Plug-In . SVG Version: 2.1.1 Build 136)  -->
  <defs>
    <style>
      .st0 {
        fill: #3d3d3d;
      }
    </style>
  </defs>
  <path class="st0" d="M2.75,19.25l5.33-5.33c.38-.38.86-.58,1.43-.58s1.04.19,1.43.58l2.58,2.58,6.4-7.23c.18-.22.42-.33.71-.33s.54.1.74.3c.18.18.28.4.29.66s-.08.49-.26.69l-6.48,7.3c-.38.43-.86.66-1.43.69s-1.06-.17-1.48-.59l-2.5-2.5-5.25,5.25c-.22.22-.47.33-.75.33s-.53-.11-.75-.33c-.22-.22-.33-.47-.33-.75s.11-.53.33-.75ZM2.75,13.25l5.33-5.33c.38-.38.86-.58,1.43-.58s1.04.19,1.43.58l2.58,2.58,6.4-7.23c.18-.22.42-.33.71-.33s.54.1.74.3c.18.18.28.4.29.66s-.08.49-.26.69l-6.48,7.3c-.38.43-.86.66-1.43.69s-1.06-.17-1.48-.59l-2.5-2.5-5.25,5.25c-.22.22-.47.33-.75.33s-.53-.11-.75-.33-.33-.47-.33-.75.11-.53.33-.75Z"/>
</svg>