<?xml version="1.0" encoding="UTF-8"?>
<svg id="Camada_1" xmlns="http://www.w3.org/2000/svg" version="1.1" viewBox="0 0 800 800">
  <!-- Generator: Adobe Illustrator 30.1.0, SVG Export Plug-In . SVG Version: 2.1.1 Build 136)  -->
  <defs>
    <style>
      .st0 {
        fill: #3d3d3d;
        fill-rule: evenodd;
      }
    </style>
  </defs>
  <path class="st0" d="M416.67,83.48c0-9.2-7.46-16.67-16.67-16.67s-16.67,7.46-16.67,16.67v122.04c-15.38,10.39-28.62,34.84-37.6,67.81l-7.5,1.31-40.67-41.07v-60.41c0-4.39-1.73-8.61-4.82-11.73l-66.6-67.26c-6.48-6.54-17.03-6.59-23.57-.12-6.54,6.48-6.59,17.03-.12,23.57l61.77,62.39v60.41c0,4.39,1.73,8.61,4.82,11.73l29.17,29.47-196.29,34.23c-8.07,38.71,4.84,116.14,121.08,116.14,3.54,0,7-.1,10.37-.3l-28.4,19.12c-5.31,3.57-8.1,9.86-7.19,16.2l14.64,101.85-57.92,39c-7.64,5.14-9.66,15.5-4.52,23.13,5.14,7.64,15.5,9.66,23.13,4.52l66.6-44.84c5.31-3.57,8.1-9.86,7.19-16.19l-14.64-101.85,51.77-34.85-15,15.15c-4.41,4.45-5.95,11-3.98,16.95l42.34,128.29-51.39,111.4c-3.86,8.36-.21,18.26,8.15,22.12,8.36,3.86,18.26.2,22.12-8.15l54.14-117.36c1.77-3.83,2.02-8.19.69-12.2l-41.2-124.83,36.99-37.36c8.98,68.8,33.83,118.26,63.08,118.26s54.2-49.65,63.14-118.66l37.39,37.77-41.2,124.83c-1.32,4.01-1.08,8.37.69,12.2l54.14,117.36c3.86,8.36,13.76,12.01,22.12,8.15s12.01-13.76,8.15-22.12l-51.39-111.4,42.34-128.29c1.96-5.95.43-12.5-3.98-16.95l-15-15.15,51.77,34.86-14.64,101.84c-.91,6.33,1.88,12.62,7.19,16.2l66.6,44.84c7.64,5.14,17.99,3.12,23.13-4.52,5.14-7.63,3.12-17.99-4.52-23.13l-57.92-39,14.64-101.84c.91-6.33-1.88-12.62-7.19-16.2l-28.39-19.12c3.37.2,6.83.3,10.36.3,116.24,0,129.15-77.43,121.08-116.14l-196.29-34.23,29.17-29.47c3.09-3.12,4.82-7.34,4.82-11.73v-60.41l61.78-62.39c6.48-6.54,6.42-17.09-.12-23.57-6.54-6.48-17.09-6.42-23.57.12l-66.6,67.26c-3.09,3.12-4.82,7.33-4.82,11.73v60.41l-40.67,41.07-7.98-1.39c-8.98-32.93-22.21-57.35-37.58-67.73v-122.04ZM328.83,312.52l-2.04-2.05-192.91,33.64c1.13,8.64,4.01,17.59,9.38,25.35,8.94,12.91,29.45,29.19,79.75,29.19,45.59,0,71.87-20.29,88.21-45.68,8.13-12.64,13.84-26.73,17.61-40.46ZM471.62,312.52c3.78,13.72,9.48,27.82,17.61,40.45,16.33,25.38,42.61,45.68,88.2,45.68,50.3,0,70.81-16.28,79.75-29.19,5.37-7.76,8.25-16.71,9.38-25.35l-192.9-33.64-2.04,2.06ZM433.33,375c0,45.34-7.06,84.88-17.34,111.88-5.19,13.61-10.55,22.33-14.81,27.06-.43.48-.83.89-1.18,1.24-.35-.35-.75-.76-1.18-1.24-4.26-4.73-9.62-13.45-14.81-27.06-10.28-27-17.34-66.54-17.34-111.88s7.06-84.88,17.34-111.88c5.19-13.62,10.55-22.33,14.81-27.06.43-.48.83-.89,1.18-1.24.35.35.75.76,1.18,1.24,4.26,4.73,9.62,13.45,14.81,27.06,10.28,27,17.34,66.54,17.34,111.88ZM397.63,517.09s.06-.04.18-.09c-.12.07-.18.09-.18.09ZM402.19,517c.12.05.18.08.18.09,0,0-.06-.02-.18-.09Z"/>
</svg>