<?xml version="1.0" encoding="UTF-8"?>
<svg id="Camada_1" xmlns="http://www.w3.org/2000/svg" version="1.1" viewBox="0 0 24 24">
  <!-- Generator: Adobe Illustrator 30.0.0, SVG Export Plug-In . SVG Version: 2.1.1 Build 123)  -->
  <defs>
    <style>
      .st0 {
        fill: #fff;
      }
    </style>
  </defs>
  <path class="st0" d="M8.4,22c-.45,0-.76-.2-.93-.61s-.09-.77.23-1.09l12.6-12.63c.32-.32.68-.39,1.09-.23s.61.48.61.93v12.13c0,.42-.15.77-.44,1.06s-.65.44-1.06.44h-12.1ZM18,20h2v-9.2l-2,2v7.2ZM11.05,13.1c-.4,0-.75-.15-1.05-.45s-.45-.65-.45-1.05.15-.75.45-1.05.65-.45,1.05-.45.75.15,1.05.45.45.65.45,1.05-.15.75-.45,1.05-.65.45-1.05.45ZM11.05,8.45c-.43,0-.86.06-1.29.19s-.83.32-1.21.59c-.22.13-.45.2-.7.2s-.47-.09-.65-.28-.27-.4-.26-.65.11-.45.31-.6c.57-.42,1.17-.73,1.81-.94s1.3-.31,1.99-.31,1.35.1,1.99.31c.64.21,1.25.52,1.81.94.2.15.3.35.31.6s-.08.47-.26.65-.4.28-.65.28-.48-.07-.7-.2c-.38-.27-.79-.46-1.21-.59s-.85-.19-1.29-.19ZM11.05,4.85c-.9,0-1.78.14-2.64.43s-1.66.72-2.41,1.3c-.2.17-.43.25-.69.26s-.48-.08-.66-.26-.27-.4-.25-.65.13-.46.33-.63c.92-.77,1.92-1.34,3-1.73s2.19-.58,3.33-.58,2.25.19,3.34.58,2.1.96,3.04,1.73c.2.17.31.38.33.63s-.07.47-.25.65-.4.27-.66.26-.49-.1-.69-.26c-.75-.58-1.56-1.02-2.44-1.3s-1.76-.43-2.66-.43Z"/>
</svg>