<?xml version="1.0" encoding="UTF-8"?>
<svg id="Layer_1" xmlns="http://www.w3.org/2000/svg" version="1.1" viewBox="0 0 800 800">
  <!-- Generator: Adobe Illustrator 30.1.0, SVG Export Plug-In . SVG Version: 2.1.1 Build 136)  -->
  <defs>
    <style>
      .st0 {
        fill: #fff;
      }
    </style>
  </defs>
  <path class="st0" d="M608.7,156.52h-129.8V26.09c0-14.4-12.32-26.09-26.72-26.09h-104.35c-14.4,0-25.45,11.69-25.45,26.09v130.43h-131.07c-14.4,0-25.45,11.69-25.45,26.09v104.35c0,14.4,11.05,26.09,25.45,26.09h131.07v215.98c17.39-4.59,51.3-7.28,78.26-7.28s60.87,2.69,78.26,7.28v-215.98h129.8c14.4,0,26.72-11.69,26.72-26.09v-104.35c0-14.4-12.32-26.09-26.72-26.09Z"/>
  <path class="st0" d="M686.26,772.15c-7.54-111.16-133.27-198.23-286.26-198.23s-278.72,87.08-286.26,198.23c-.49,7.2,2.02,14.3,6.96,19.58,4.93,5.28,11.84,8.27,19.06,8.27h520.48c7.22,0,14.13-2.99,19.06-8.27,4.94-5.28,7.45-12.38,6.96-19.58Z"/>
</svg>